<svg width="22" height="23" viewBox="0 0 22 23" fill="none" xmlns="http://www.w3.org/2000/svg">
<g clip-path="url(#clip0_186_189)">
<path fill-rule="evenodd" clip-rule="evenodd" d="M20.02 6.05123C20.0599 5.8086 20.0341 5.55969 19.9452 5.33043C19.8563 5.10117 19.7075 4.89996 19.5144 4.74774C19.3213 4.59553 19.0909 4.49789 18.8472 4.46499C18.6035 4.4321 18.3554 4.46516 18.1289 4.56073L2.45388 11.1607C1.36121 11.6209 1.3053 13.2012 2.45388 13.6779C3.59121 14.1522 4.74511 14.5858 5.91338 14.9777C6.98405 15.3316 8.15188 15.6588 9.0878 15.7514C9.34355 16.0576 9.6653 16.3518 9.99346 16.6222C10.4949 17.0347 11.098 17.4591 11.7214 17.8661C12.9699 18.682 14.355 19.4621 15.2881 19.9699C16.4037 20.5749 17.7393 19.8782 17.9391 18.6618L20.02 6.05123ZM4.21113 12.4092L18.0748 6.57281L16.1333 18.3428C15.2175 17.8451 13.8985 17.0998 12.7233 16.3316C12.1817 15.9839 11.6588 15.6079 11.1567 15.2051C11.0225 15.0955 10.8923 14.9811 10.7662 14.8622L14.3971 11.2322C14.5691 11.0603 14.6658 10.8272 14.6659 10.584C14.666 10.3408 14.5695 10.1076 14.3976 9.9356C14.2257 9.7636 13.9925 9.66692 13.7494 9.66683C13.5062 9.66675 13.273 9.76326 13.101 9.93514L9.12538 13.9107C8.45255 13.8246 7.51571 13.5752 6.48721 13.2361C5.72152 12.981 4.96194 12.7053 4.21113 12.4092Z" fill="#EADFD4"/>
</g>
<defs>
<clipPath id="clip0_186_189">
<rect width="22" height="22" fill="white" transform="translate(0 0.5)"/>
</clipPath>
</defs>
</svg>
