<svg width="27" height="27" viewBox="0 0 27 27" fill="none" xmlns="http://www.w3.org/2000/svg">
<path d="M21.2486 5.47654C20.226 4.44361 19.008 3.62464 17.6656 3.06737C16.3232 2.51011 14.8833 2.22572 13.4298 2.23078C7.33979 2.23078 2.37634 7.19423 2.37634 13.2842C2.37634 15.2361 2.88942 17.1323 3.84864 18.8054L2.28711 24.5384L8.14287 22.9992C9.76017 23.8804 11.5782 24.3488 13.4298 24.3488C19.5198 24.3488 24.4832 19.3854 24.4832 13.2954C24.4832 10.3396 23.3344 7.56231 21.2486 5.47654ZM13.4298 22.475C11.779 22.475 10.1617 22.0288 8.74517 21.1923L8.41056 20.9915L4.93057 21.9061L5.85633 18.5154L5.63326 18.1696C4.71613 16.7051 4.22915 15.0122 4.22787 13.2842C4.22787 8.22038 8.35479 4.09347 13.4186 4.09347C15.8725 4.09347 18.1813 5.0527 19.9101 6.79269C20.7662 7.6448 21.4446 8.65835 21.906 9.77458C22.3674 10.8908 22.6027 12.0875 22.5982 13.2954C22.6205 18.3592 18.4936 22.475 13.4298 22.475ZM18.4713 15.6042C18.1925 15.4704 16.8317 14.8011 16.5863 14.7008C16.3298 14.6115 16.1513 14.5669 15.9617 14.8346C15.7721 15.1134 15.2479 15.7381 15.0917 15.9165C14.9355 16.1061 14.7682 16.1284 14.4894 15.9834C14.2105 15.8496 13.3182 15.5484 12.2698 14.6115C11.4444 13.8754 10.8979 12.9719 10.7306 12.6931C10.5744 12.4142 10.7082 12.2692 10.8532 12.1242C10.9759 12.0015 11.1321 11.8008 11.2659 11.6446C11.3998 11.4885 11.4556 11.3658 11.5448 11.1873C11.634 10.9977 11.5894 10.8415 11.5225 10.7077C11.4556 10.5738 10.8979 9.21307 10.6748 8.65538C10.4517 8.12 10.2175 8.18692 10.0502 8.17577H9.51479C9.32517 8.17577 9.03517 8.24269 8.77863 8.52154C8.53325 8.80038 7.81941 9.46961 7.81941 10.8304C7.81941 12.1911 8.8121 13.5073 8.94594 13.6858C9.07979 13.8754 10.8979 16.6638 13.664 17.8573C14.3221 18.1473 14.8352 18.3146 15.2367 18.4373C15.8948 18.6492 16.4971 18.6157 16.9767 18.5488C17.5121 18.4707 18.6163 17.8796 18.8394 17.2327C19.0736 16.5857 19.0736 16.0392 18.9955 15.9165C18.9175 15.7938 18.7502 15.7381 18.4713 15.6042Z" fill="#EADFD4"/>
</svg>
