<svg width="23" height="17" viewBox="0 0 23 17" fill="none" xmlns="http://www.w3.org/2000/svg">
<path fill-rule="evenodd" clip-rule="evenodd" d="M22.0244 12.7327C21.5116 11.6355 20.836 10.6332 20.0233 9.76433C19.7515 9.43797 19.4669 9.1239 19.1703 8.82295L19.1345 8.78589C19.0243 8.67225 18.9156 8.55707 18.8083 8.44039C19.9192 6.79907 20.8698 5.04177 21.6455 3.1957L21.6766 3.12159L21.6982 3.04348C21.801 2.67995 21.9179 1.98894 21.5031 1.36402C21.0733 0.719075 20.3862 0.602904 19.9253 0.602904H17.8073C17.3638 0.581432 16.9254 0.709559 16.5546 0.968949C16.1838 1.22834 15.8998 1.6057 15.7431 2.04702C15.2873 3.20035 14.7166 4.29854 14.0408 5.32282V2.68596C14.0408 2.34546 14.0107 1.77462 13.6666 1.29392C13.2557 0.717072 12.6609 0.602904 12.2481 0.602904H8.88686C8.44826 0.592182 8.02258 0.761097 7.69797 1.07467C7.37336 1.38824 7.1747 1.82245 7.14311 2.28737L7.14028 2.33244V2.3775C7.14028 2.86322 7.32126 3.22174 7.46641 3.44707C7.53145 3.54822 7.60026 3.64035 7.64456 3.69844L7.65398 3.71146C7.70111 3.77355 7.73222 3.81461 7.76332 3.86068C7.84627 3.97885 7.96409 4.16312 7.99802 4.63782V6.11298C7.32331 4.91254 6.77008 3.63959 6.34759 2.31541L6.34004 2.29338L6.3325 2.27235C6.21751 1.95288 6.03371 1.4882 5.66517 1.13368C5.23536 0.718073 4.72637 0.602904 4.26357 0.602904H2.11452C1.64606 0.602904 1.08146 0.719075 0.660134 1.19077C0.246347 1.65545 0.199219 2.21226 0.199219 2.50669V2.64089L0.225611 2.77108C0.820654 5.70616 2.04687 8.45512 3.80831 10.8028C4.61362 12.1521 5.70691 13.2808 6.99951 14.0972C8.29211 14.9136 9.74763 15.3948 11.248 15.5017L11.2866 15.5047H11.3262C12.0105 15.5047 12.7241 15.4416 13.2604 15.0621C13.9833 14.5493 14.0408 13.7632 14.0408 13.3706V12.2309C14.2265 12.3912 14.4565 12.6055 14.7383 12.8939C15.0795 13.2564 15.351 13.5709 15.5838 13.8453L15.7082 13.9915C15.8892 14.2058 16.0673 14.4171 16.2295 14.5904C16.4331 14.8077 16.6847 15.0471 16.9995 15.2243C17.3417 15.4156 17.7008 15.5027 18.0816 15.5027H20.2316C20.685 15.5027 21.3344 15.3886 21.7916 14.8257C22.2892 14.2128 22.2515 13.4607 22.0951 12.921L22.0668 12.8238L22.0244 12.7327ZM16.6329 12.8388C16.3408 12.4919 16.04 12.1533 15.7308 11.8233L15.728 11.8203C14.449 10.5104 13.8523 10.2831 13.43 10.2831C13.2048 10.2831 12.9569 10.3091 12.7957 10.5234C12.7231 10.6257 12.6755 10.7454 12.6571 10.872C12.6344 11.0189 12.6243 11.1677 12.627 11.3166V13.3706C12.627 13.626 12.5874 13.7331 12.4762 13.8113C12.3282 13.9164 12.0124 14.0015 11.3347 14.0015C10.0474 13.9085 8.79918 13.4921 7.69279 12.7866C6.58641 12.0812 5.6534 11.1068 4.97049 9.94359L4.96295 9.93057L4.95353 9.91855C3.31263 7.74853 2.16904 5.20289 1.61307 2.48266C1.61684 2.35247 1.64323 2.27335 1.68659 2.22528C1.73089 2.17521 1.83929 2.10511 2.11452 2.10511H4.26357C4.50204 2.10511 4.62646 2.16119 4.716 2.24631C4.81591 2.34446 4.90452 2.5097 5.01008 2.80413C5.53792 4.45255 6.2505 5.9948 6.92632 7.12746C7.26376 7.69429 7.59554 8.16599 7.89528 8.49947C8.04515 8.66572 8.19125 8.80392 8.33169 8.90206C8.46648 8.9962 8.62012 9.07131 8.77847 9.07131C8.86141 9.07131 8.9585 9.0613 9.05181 9.01824C9.15259 8.97094 9.23555 8.88914 9.28745 8.78589C9.38454 8.59762 9.41187 8.32021 9.41187 7.95668V4.57873C9.36192 3.75953 9.1291 3.29785 8.90289 2.97037C8.85707 2.90487 8.80993 2.84043 8.7615 2.77709L8.74925 2.76107C8.70905 2.70919 8.67069 2.65575 8.63425 2.60083C8.58786 2.53959 8.55993 2.4649 8.55414 2.38652C8.56153 2.30694 8.59727 2.23337 8.65404 2.18087C8.71081 2.12837 8.78432 2.10091 8.85953 2.1041H12.2481C12.4422 2.1041 12.5073 2.15418 12.5403 2.20125C12.5874 2.26634 12.627 2.40154 12.627 2.68596V7.2206C12.627 7.75939 12.8607 8.12392 13.2001 8.12392C13.5903 8.12392 13.8721 7.87256 14.3641 7.34979L14.3726 7.33978L14.3801 7.33076C15.4839 5.90095 16.3856 4.30791 17.057 2.60183L17.0608 2.58982C17.1113 2.43908 17.2067 2.31002 17.3327 2.22232C17.4586 2.13463 17.6081 2.09311 17.7583 2.1041H19.9262C20.2203 2.1041 20.3164 2.18422 20.3485 2.23129C20.3815 2.28136 20.405 2.38852 20.3485 2.59883C19.5742 4.43788 18.6171 6.18368 17.4934 7.80646L17.4859 7.81848C17.3775 7.99574 17.2578 8.19202 17.2408 8.41635C17.222 8.65871 17.32 8.87803 17.4925 9.11438C17.6179 9.31066 17.8771 9.58006 18.14 9.85346L18.1646 9.8795C18.4398 10.1659 18.7386 10.4764 18.978 10.7768L18.9846 10.7838L18.9912 10.7918C19.7051 11.5484 20.2988 12.423 20.7491 13.3816C20.8207 13.642 20.7773 13.7762 20.7208 13.8453C20.6558 13.9254 20.5097 14.0005 20.2325 14.0005H18.0816C17.935 14.0043 17.79 13.9681 17.6603 13.8954C17.5014 13.7972 17.3571 13.6743 17.2324 13.5308C17.0976 13.3876 16.9515 13.2144 16.7724 13.0031L16.6338 12.8388H16.6329Z" fill="#EADFD4"/>
</svg>
