<svg width="66" height="66" viewBox="0 0 66 66" fill="none" xmlns="http://www.w3.org/2000/svg">
<circle cx="33" cy="33" r="33" fill="#3C3631"/>
<path d="M40.8081 41.105L35.6502 35.9538C35.6428 35.9465 35.6378 35.9378 35.6351 35.9278C35.6317 35.9161 35.6244 35.9089 35.6131 35.9062C35.605 35.9045 35.5975 35.9004 35.5915 35.8945L23.062 23.3751C23.0441 23.357 23.0441 23.3391 23.062 23.3212L24.3359 22.0473C24.3449 22.0382 24.3548 22.0391 24.3656 22.0498L42.1213 39.7911C42.1235 39.7934 42.1264 39.7949 42.1295 39.7955C42.1326 39.7961 42.1358 39.7958 42.1388 39.7946C42.1417 39.7934 42.1442 39.7913 42.146 39.7887C42.1478 39.786 42.1487 39.7829 42.1488 39.7798V22.026C42.1488 22.0116 42.1559 22.0044 42.17 22.0044L43.9883 22C43.9914 22 43.9944 22.0012 43.9966 22.0034C43.9988 22.0056 44 22.0086 44 22.0117V42.987C44 42.9898 43.9992 42.9925 43.9975 42.9947C43.9959 42.9969 43.9936 42.9986 43.991 42.9994C43.9884 43.0002 43.9855 43.0002 43.9829 42.9993C43.9803 42.9984 43.9781 42.9966 43.9765 42.9944C43.9726 42.9882 43.9693 42.984 43.9666 42.9815C43.9647 42.9795 43.9627 42.9778 43.9607 42.9767C43.9587 42.9755 43.9568 42.9749 43.9552 42.9749L23.0271 42.9746C23.0216 42.9746 23.0162 42.9724 23.0122 42.9685C23.0082 42.9646 23.006 42.9592 23.0059 42.9537L23 41.142C23 41.1311 23.0064 41.1254 23.0191 41.1252C28.9462 41.1223 34.8733 41.1274 40.8004 41.123C40.8173 41.123 40.8198 41.117 40.8081 41.105Z" fill="#FBFBF7"/>
</svg>
